<svg width="62" height="62" viewBox="0 0 62 62" xmlns="http://www.w3.org/2000/svg">
  <path id="Vector"
    d="M6.04183 55.9445H10.0418L44.2364 21.7498L40.2365 17.7499L6.04183 51.9445V55.9445ZM56.0419 17.7499L44.2087 5.97217L48.0975 2.08333C49.153 1.02778 50.454 0.5 52.0002 0.5C53.5466 0.5 54.8475 1.02778 55.903 2.08333L59.903 6.08333C60.9586 7.13883 61.4956 8.43047 61.5141 9.95825C61.5326 11.486 61.0141 12.7777 59.9586 13.8333L56.0419 17.7499ZM52.0975 21.7221L12.3196 61.5H0.486328V49.6667L40.2642 9.88883L52.0975 21.7221ZM42.2364 19.7499L40.2365 17.7499L44.2364 21.7498L42.2364 19.7499Z" />
</svg>